# xmcd CD database file
#
# Track frame offsets:
#	150
#	19265
#	32552
#	49811
#	68779
#	91581
#	109536
#	130119
#	151290
#	167440
#	180834
#	201653
#	216809
#	236381
#	253135
#	270677
#	284681
#
# Disc length: 4171 seconds
#
# Revision: 1
# Processed by: cddbd v1.5.2PL0 Copyright (c) Steve Scherf et al.
# Submitted via: CDex 1.70beta2
#
DISCID=e7104911
DTITLE=Various Artist - Monte Carlo Nights - New Classic 03
DYEAR=2007
DGENRE=New Age
TTITLE0=Banda Du Sul Ft Natascha - Seet Child O' Mine
TTITLE1=Solal - Dancing Queen
TTITLE2=Ray Barreto - Pastime Paradise
TTITLE3=Mario Biondi - Rio The Janeiro Blue
TTITLE4=Berk And The Virtual Band - Billie Jean
TTITLE5=Fredoom Dub - Simpathy For The Devil
TTITLE6=Diana Ross - I Want You
TTITLE7=Dolapdere Big Gang - Can't Take My Eyes Off Of You  
TTITLE8=Ganesh - I've Been Thinking About You
TTITLE9=Corinne Bailey Rae - Venus As A  Boy
TTITLE10=Sarah Vaughan - Fever
TTITLE11=Vanessa And The O'S - Je Changerais D'Avis
TTITLE12=Mystic Diversions - Josephine
TTITLE13=Nina Simone - The Look Of Love
TTITLE14=Ville Valo And Natalia Avelon - Summer Wines
TTITLE15=Julie Depardieu - Born To Be Alive
TTITLE16=Bryan Ferry - Knockin' On Heaven's Door
EXTD=Monte Carlo Nights\nnew classic vol 3\n YEAR: 2007
EXTT0=
EXTT1=
EXTT2=
EXTT3=
EXTT4=
EXTT5=
EXTT6=
EXTT7=
EXTT8=
EXTT9=
EXTT10=
EXTT11=
EXTT12=
EXTT13=
EXTT14=
EXTT15=
EXTT16=
PLAYORDER=
